<svg width="157" height="37" viewBox="0 0 157 37" fill="none" xmlns="http://www.w3.org/2000/svg">
<path d="M12.408 3.024C9.976 3.824 8.088 5.152 6.744 7.008C5.432 8.832 4.776 11.104 4.776 13.824C4.776 15.04 4.888 15.872 5.112 16.32C5.336 16.768 5.448 17.04 5.448 17.136C2.024 17.136 0.312 15.68 0.312 12.768C0.312 10.784 1.064 8.8 2.568 6.816C4.104 4.8 6.056 3.168 8.424 1.92C10.824 0.639997 13.208 -2.86102e-06 15.576 -2.86102e-06C16.76 -2.86102e-06 17.976 0.223997 19.224 0.671997L18.12 25.968L28.68 0.671997H35.592L30.552 36H23.64L26.712 14.448L17.688 36H11.112L12.072 14.352L4.056 36H0.216L12.408 3.024ZM39.5333 36.288C37.9973 36.288 36.7493 35.808 35.7893 34.848C34.8613 33.888 34.3972 32.448 34.3972 30.528C34.3972 29.728 34.5252 28.688 34.7812 27.408L38.0453 12H44.9573L41.5013 28.32C41.4053 28.8 41.3573 29.248 41.3573 29.664C41.3573 30.976 41.8373 31.632 42.7973 31.632C43.6933 31.632 44.4613 31.264 45.1013 30.528C45.7413 29.76 46.2533 28.72 46.6373 27.408L49.9013 12H56.8133L53.3573 28.32C53.2293 28.8 53.1653 29.312 53.1653 29.856C53.1653 30.496 53.3093 30.96 53.5973 31.248C53.9173 31.504 54.4293 31.632 55.1333 31.632C56.0293 31.632 56.7973 31.248 57.4373 30.48C58.1093 29.712 58.6373 28.688 59.0212 27.408H61.0373C59.8533 30.864 58.3813 33.216 56.6213 34.464C54.8933 35.68 53.1493 36.288 51.3893 36.288C50.0133 36.288 48.9093 35.904 48.0773 35.136C47.2773 34.368 46.7973 33.232 46.6373 31.728C45.5493 33.488 44.3973 34.688 43.1813 35.328C41.9973 35.968 40.7813 36.288 39.5333 36.288ZM63.7676 36.288C62.2316 36.288 60.9836 35.808 60.0236 34.848C59.0956 33.888 58.6316 32.448 58.6316 30.528C58.6316 29.728 58.7596 28.688 59.0156 27.408L61.8956 13.92H60.3116L60.6956 12H62.2796L63.7196 5.376L70.8236 4.416L69.1916 12H72.0716L71.6876 13.92H68.8076L65.7356 28.32C65.6076 28.8 65.5436 29.312 65.5436 29.856C65.5436 30.496 65.6876 30.96 65.9756 31.248C66.2956 31.504 66.8076 31.632 67.5116 31.632C68.4396 31.632 69.3036 31.248 70.1036 30.48C70.9036 29.68 71.4796 28.656 71.8316 27.408H73.8476C72.6636 30.864 71.1436 33.216 69.2876 34.464C67.4316 35.68 65.5916 36.288 63.7676 36.288ZM77.5725 36.288C75.7485 36.288 74.2285 35.664 73.0125 34.416C71.7965 33.168 71.1885 31.216 71.1885 28.56C71.1885 26.192 71.6525 23.712 72.5805 21.12C73.5405 18.496 74.9485 16.288 76.8045 14.496C78.6925 12.672 80.9325 11.76 83.5245 11.76C84.8365 11.76 85.8125 11.984 86.4525 12.432C87.0925 12.88 87.4125 13.472 87.4125 14.208V14.544L87.9405 12H94.8525L91.3965 28.32C91.2685 28.8 91.2045 29.312 91.2045 29.856C91.2045 31.232 91.8605 31.92 93.1725 31.92C94.0685 31.92 94.8365 31.504 95.4765 30.672C96.1485 29.84 96.6765 28.752 97.0605 27.408H99.0765C97.8925 30.864 96.4205 33.216 94.6605 34.464C92.9325 35.68 91.1885 36.288 89.4285 36.288C88.0845 36.288 86.9965 35.92 86.1645 35.184C85.3645 34.416 84.8845 33.312 84.7245 31.872C83.7965 33.184 82.7565 34.256 81.6045 35.088C80.4845 35.888 79.1405 36.288 77.5725 36.288ZM80.6925 31.632C81.4925 31.632 82.2765 31.264 83.0445 30.528C83.8445 29.76 84.3885 28.72 84.6765 27.408L86.9805 16.56C86.9805 16.144 86.8205 15.744 86.5005 15.36C86.1805 14.944 85.6845 14.736 85.0125 14.736C83.7325 14.736 82.5805 15.488 81.5565 16.992C80.5325 18.464 79.7325 20.256 79.1565 22.368C78.5805 24.448 78.2925 26.288 78.2925 27.888C78.2925 29.488 78.5165 30.512 78.9645 30.96C79.4445 31.408 80.0205 31.632 80.6925 31.632ZM115.126 36.288C113.142 36.288 111.638 35.824 110.614 34.896C109.59 33.936 109.078 32.576 109.078 30.816C109.078 30.048 109.174 29.216 109.366 28.32L109.75 26.448C109.878 25.904 109.942 25.312 109.942 24.672C109.942 23.136 109.366 22.368 108.214 22.368C107.702 22.368 107.158 22.512 106.582 22.8C106.038 23.088 105.398 23.536 104.662 24.144L102.166 36H95.2541L102.214 3.36L109.318 2.4L105.718 19.296L114.982 12H119.734L110.134 18.672C110.614 18.544 111.142 18.48 111.718 18.48C113.446 18.48 114.758 19.008 115.654 20.064C116.55 21.12 116.998 22.464 116.998 24.096C116.998 24.768 116.934 25.376 116.806 25.92L116.278 28.32C116.118 28.896 116.038 29.408 116.038 29.856C116.038 31.04 116.662 31.632 117.91 31.632C118.87 31.632 119.638 31.296 120.214 30.624C120.79 29.92 121.366 28.848 121.942 27.408H123.958C121.974 33.328 119.03 36.288 115.126 36.288ZM129.938 9.408C128.882 9.408 127.986 9.04 127.25 8.304C126.514 7.568 126.146 6.672 126.146 5.616C126.146 4.56 126.514 3.664 127.25 2.928C127.986 2.16 128.882 1.776 129.938 1.776C130.994 1.776 131.89 2.16 132.626 2.928C133.394 3.664 133.778 4.56 133.778 5.616C133.778 6.672 133.394 7.568 132.626 8.304C131.89 9.04 130.994 9.408 129.938 9.408ZM126.674 36.288C125.138 36.288 123.89 35.808 122.93 34.848C122.002 33.888 121.538 32.448 121.538 30.528C121.538 29.728 121.666 28.688 121.922 27.408L125.186 12H132.098L128.642 28.32C128.514 28.8 128.45 29.312 128.45 29.856C128.45 30.496 128.594 30.96 128.882 31.248C129.202 31.504 129.714 31.632 130.418 31.632C131.346 31.632 132.21 31.248 133.01 30.48C133.81 29.68 134.386 28.656 134.738 27.408H136.754C135.57 30.864 134.05 33.216 132.194 34.464C130.338 35.68 128.498 36.288 126.674 36.288ZM151.231 36.288C149.535 36.288 148.303 35.776 147.535 34.752C146.767 33.728 146.383 32.432 146.383 30.864C146.383 30.192 146.463 29.44 146.623 28.608C146.783 27.744 146.943 26.912 147.103 26.112C147.295 25.312 147.423 24.8 147.487 24.576C147.743 23.456 147.983 22.352 148.207 21.264C148.431 20.176 148.543 19.296 148.543 18.624C148.543 16.992 147.967 16.176 146.815 16.176C145.983 16.176 145.247 16.592 144.607 17.424C143.967 18.224 143.455 19.28 143.071 20.592L139.807 36H132.895L137.983 12H144.895L144.367 14.496C145.967 12.704 147.839 11.808 149.983 11.808C151.615 11.808 152.911 12.256 153.871 13.152C154.831 14.048 155.311 15.408 155.311 17.232C155.311 18.16 155.199 19.2 154.975 20.352C154.751 21.472 154.431 22.848 154.015 24.48C153.759 25.472 153.519 26.448 153.295 27.408C153.103 28.336 153.007 29.072 153.007 29.616C153.007 30.256 153.151 30.752 153.439 31.104C153.727 31.456 154.223 31.632 154.927 31.632C155.695 31.632 156.223 31.536 156.511 31.344C156.319 32.976 155.727 34.208 154.735 35.04C153.775 35.872 152.607 36.288 151.231 36.288Z" fill="black"/>
</svg>
